<svg xmlns="http://www.w3.org/2000/svg">
  <symbol id="logo" viewBox="0 0 177 73">
    <path d="M69.56 39.62L66.02 42.14C66.48 43.18 67.14 44.12 68 44.96C68.86 45.78 69.87 46.44 71.03 46.94C72.21 47.42 73.48 47.66 74.84 47.66C75.84 47.66 76.8 47.51 77.72 47.21C78.64 46.93 79.47 46.51 80.21 45.95C80.97 45.39 81.56 44.7 81.98 43.88C82.42 43.06 82.64 42.11 82.64 41.03C82.64 40.15 82.49 39.37 82.19 38.69C81.91 37.99 81.52 37.38 81.02 36.86C80.54 36.34 79.97 35.9 79.31 35.54C78.67 35.16 77.98 34.83 77.24 34.55C76.52 34.31 75.87 34.08 75.29 33.86C74.71 33.62 74.22 33.39 73.82 33.17C73.44 32.93 73.14 32.67 72.92 32.39C72.72 32.09 72.62 31.75 72.62 31.37C72.62 31.05 72.7 30.77 72.86 30.53C73.02 30.29 73.26 30.11 73.58 29.99C73.92 29.85 74.34 29.78 74.84 29.78C75.36 29.78 75.85 29.88 76.31 30.08C76.79 30.26 77.23 30.54 77.63 30.92C78.03 31.3 78.37 31.74 78.65 32.24L82.52 30.08C82.16 29.36 81.64 28.65 80.96 27.95C80.28 27.25 79.43 26.67 78.41 26.21C77.39 25.75 76.17 25.52 74.75 25.52C73.41 25.52 72.18 25.76 71.06 26.24C69.94 26.72 69.05 27.41 68.39 28.31C67.75 29.19 67.43 30.26 67.43 31.52C67.43 32.56 67.62 33.44 68 34.16C68.4 34.86 68.89 35.47 69.47 35.99C70.05 36.49 70.66 36.9 71.3 37.22C71.94 37.54 72.52 37.8 73.04 38C74.06 38.4 74.87 38.75 75.47 39.05C76.09 39.33 76.53 39.64 76.79 39.98C77.07 40.32 77.21 40.75 77.21 41.27C77.21 41.69 77.1 42.06 76.88 42.38C76.68 42.68 76.39 42.92 76.01 43.1C75.63 43.26 75.19 43.34 74.69 43.34C73.99 43.34 73.32 43.19 72.68 42.89C72.06 42.59 71.49 42.16 70.97 41.6C70.45 41.04 69.98 40.38 69.56 39.62ZM86.0293 26V47H91.2793V26H86.0293ZM98.3893 26L89.7793 35.99L98.6593 47H104.809L95.8393 35.84L104.359 26H98.3893ZM109.681 36.5C109.681 35.56 109.821 34.71 110.101 33.95C110.381 33.19 110.781 32.53 111.301 31.97C111.841 31.41 112.471 30.97 113.191 30.65C113.931 30.33 114.751 30.17 115.651 30.17C116.551 30.17 117.361 30.33 118.081 30.65C118.821 30.97 119.451 31.41 119.971 31.97C120.491 32.53 120.881 33.2 121.141 33.98C121.401 34.74 121.531 35.58 121.531 36.5C121.531 37.42 121.391 38.27 121.111 39.05C120.831 39.81 120.431 40.47 119.911 41.03C119.391 41.59 118.771 42.03 118.051 42.35C117.331 42.67 116.531 42.83 115.651 42.83C114.751 42.83 113.931 42.67 113.191 42.35C112.471 42.03 111.841 41.59 111.301 41.03C110.781 40.47 110.381 39.8 110.101 39.02C109.821 38.24 109.681 37.4 109.681 36.5ZM104.341 36.5C104.341 38.12 104.611 39.61 105.151 40.97C105.691 42.33 106.471 43.51 107.491 44.51C108.511 45.51 109.711 46.29 111.091 46.85C112.471 47.39 113.991 47.66 115.651 47.66C117.291 47.66 118.791 47.39 120.151 46.85C121.531 46.29 122.731 45.51 123.751 44.51C124.771 43.51 125.561 42.33 126.121 40.97C126.681 39.61 126.961 38.12 126.961 36.5C126.961 34.88 126.671 33.4 126.091 32.06C125.511 30.7 124.711 29.53 123.691 28.55C122.691 27.57 121.501 26.82 120.121 26.3C118.761 25.78 117.271 25.52 115.651 25.52C114.031 25.52 112.531 25.78 111.151 26.3C109.771 26.82 108.571 27.57 107.551 28.55C106.531 29.53 105.741 30.7 105.181 32.06C104.621 33.4 104.341 34.88 104.341 36.5ZM130.18 26V47H143.68V42.62H135.22V26H130.18ZM150.238 42.95H161.338L160.978 39.08H150.568L150.238 42.95ZM155.758 33.74L158.698 40.49L158.488 41.84L160.978 47H166.768L155.758 24.68L144.688 47H150.418L152.998 41.66L152.788 40.49L155.758 33.74Z"/>
    <g clip-path="url(#clip0_206_789)">
    <path fill-rule="evenodd" clip-rule="evenodd" d="M29.8193 68.6289L27.563 72.7419L25.3118 68.639C26.0435 68.7198 26.7753 68.7754 27.502 68.7754C28.2643 68.7754 29.0469 68.7198 29.8193 68.6289ZM36.1309 57.1436L30.8763 66.7087C30.6883 66.7441 30.4901 66.7744 30.3021 66.7997C29.367 66.9361 28.4167 67.022 27.4969 67.022C26.5771 67.022 25.6218 66.9361 24.6867 66.7997C24.5444 66.7795 24.4021 66.7492 24.2548 66.729L19.0053 57.1688C19.295 57.2042 19.5897 57.2244 19.92 57.2244C22.1763 57.2244 23.3756 56.2947 24.5647 55.3599C25.3727 54.7384 26.1807 54.1067 27.4868 54.1067C28.7928 54.1067 29.5957 54.7384 30.4088 55.3599C31.5979 56.2947 32.7972 57.2244 35.0535 57.2244C35.4448 57.2244 35.7955 57.1991 36.1309 57.1436Z"/>
    <path fill-rule="evenodd" clip-rule="evenodd" d="M27.5032 22.4603H27.4879C21.3695 22.4653 15.81 24.9564 11.7802 28.9634C7.7656 32.9602 5.27046 38.473 5.26029 44.5466V44.582V44.5971C5.26537 50.6758 7.77069 56.2088 11.8005 60.2157C14.316 62.7119 17.4311 64.6168 20.9071 65.6982L17.7462 59.7963C16.6333 59.0889 15.6017 58.2704 14.6717 57.3457C11.3838 54.0815 9.34095 49.5642 9.33587 44.5971V44.582V44.5466C9.34095 39.5846 11.3889 35.0774 14.6666 31.8132C17.9495 28.544 22.4875 26.5127 27.4879 26.5127H27.5032H27.5388C32.5189 26.5178 37.0468 28.549 40.3296 31.8132H40.3397C43.6276 35.0774 45.6654 39.5947 45.6705 44.5668V44.582V44.6173C45.6604 49.5743 43.6276 54.0764 40.3397 57.3457C39.4911 58.1895 38.556 58.9424 37.5549 59.6094L34.3433 65.6173C37.7226 64.5259 40.7666 62.6462 43.2262 60.2006C47.2459 56.2037 49.741 50.6859 49.7461 44.6224V44.587V44.5719C49.741 38.4881 47.2408 32.9602 43.2109 28.9533L43.216 28.9482C39.1963 24.9514 33.642 22.4754 27.5388 22.4653"/>
    <path fill-rule="evenodd" clip-rule="evenodd" d="M37.9608 23.0919C30.9836 19.4992 24.0215 19.7115 17.0341 23.0919C17.0341 19.7266 17.0341 16.5332 17.0341 13.1578C22.0701 7.22063 33.3466 7.49854 37.9608 13.1578C37.9608 15.9622 37.9608 20.2824 37.9608 23.0919ZM44.3384 15.8409V14.3604V7.10947V6.01298C44.3384 5.67444 44.0844 5.38642 43.7439 5.346L38.6418 4.70428L27.5025 0L-1.31867e-06 11.6116L15.2097 15.5327V12.9001L15.4181 12.3342C15.9212 11.738 16.5005 11.1821 17.1205 10.6819C20.012 8.35754 23.8945 7.2459 27.716 7.28127C31.5425 7.32169 35.3437 8.51924 38.0574 10.7931C38.6164 11.263 39.1347 11.7885 39.6022 12.3544L39.8004 12.9001V15.5327L42.9918 14.7091V15.8409C42.6818 16.0582 42.4734 16.4119 42.4734 16.8212C42.4734 17.2608 42.7174 17.6398 43.068 17.8469C42.8851 17.9379 42.7072 18.0642 42.5497 18.236L42.138 22.1015C42.5497 22.435 43.0832 22.6371 43.6626 22.6371C44.2419 22.6371 44.7704 22.435 45.1973 22.1015L44.7856 18.236C44.6281 18.0642 44.4502 17.9328 44.2673 17.8469C44.623 17.6398 44.8568 17.2608 44.8568 16.8212C44.8619 16.4119 44.6535 16.0531 44.3384 15.8409ZM55 11.6116L45.6953 7.68045V14.0067L55 11.6116Z"/>
    <path fill-rule="evenodd" clip-rule="evenodd" d="M18.2993 51.8784V24.5977H24.4432V50.8729C24.0315 51.1104 23.6555 51.3782 23.2794 51.651C22.5477 52.1766 21.8159 52.7071 20.6318 52.7071C19.6155 52.7071 18.9396 52.318 18.2993 51.8784ZM30.5515 52.2321V25.9569H36.6953V53.2377C36.0601 53.6773 35.3791 54.0714 34.3577 54.0714C33.1787 54.0714 32.447 53.5408 31.7152 53.0103C31.3391 52.7425 30.9682 52.4696 30.5515 52.2321Z"/>
    </g>
  </symbol>

  <symbol id="search" viewBox="0 0 20 20">
    <path d="M8.80758 0C3.95121 0 0 3.95121 0 8.80758C0 13.6642 3.95121 17.6152 8.80758 17.6152C13.6642 17.6152 17.6152 13.6642 17.6152 8.80758C17.6152 
    3.95121 13.6642 0 8.80758 0ZM8.80758 15.9892C4.8477 15.9892 1.62602 12.7675 1.62602 8.80762C1.62602 4.84773 4.8477 1.62602 8.80758 1.62602C12.7675 1.62602 15.9891 4.8477 15.9891 
    8.80758C15.9891 12.7675 12.7675 15.9892 8.80758 15.9892Z"/>
    <path d="M19.762 18.6122L15.1007 13.9509C14.7831 13.6333 14.2687 13.6333 13.9511 13.9509C13.6335 14.2683 13.6335 14.7832 13.9511 15.1006L18.6124 19.7618C18.7712 
    19.9206 18.9791 20 19.1872 20C19.395 20 19.6032 19.9206 19.762 19.7618C20.0796 19.4445 20.0796 18.9295 19.762 18.6122Z"/>
  </symbol>

  <symbol id="user" viewBox="0 0 20 20">
    <g clip-path="url(#clip0_206_763)">
    <path d="M17.2252 3.07771C15.3376 1.10739 12.7258 -0.00456124 9.99712 0.000459433C4.48284 -0.00648583 0.00695317 4.4581 7.91636e-06 9.97243C-0.00342287 12.6991 1.1084 15.3085 3.07726 17.1948C3.08299 17.2005 3.08512 17.2091 3.09082 17.2141C3.14864 17.2698 3.21148 17.3169 3.27005 17.3705C3.43071 17.5133 3.59138 17.6611 3.76061 17.7989C3.85128 17.8703 3.94554 17.9417 4.03838 18.0074C4.19833 18.1266 4.35828 18.2459 4.52535 18.3559C4.6389 18.4273 4.756 18.4987 4.87236 18.5701C5.02658 18.6629 5.18012 18.7564 5.33936 18.8414C5.47434 18.9128 5.61211 18.9742 5.74922 19.0392C5.89917 19.1106 6.04698 19.182 6.20049 19.2462C6.354 19.3105 6.50826 19.3605 6.6639 19.4162C6.81954 19.4719 6.9538 19.5233 7.10304 19.569C7.27157 19.6197 7.44436 19.6589 7.61573 19.7011C7.75853 19.736 7.89706 19.776 8.04416 19.8046C8.24123 19.8439 8.44117 19.8689 8.64112 19.896C8.76467 19.9132 8.88534 19.9375 9.01027 19.9496C9.33732 19.9817 9.66718 19.9996 9.99992 19.9996C10.3327 19.9996 10.6626 19.9817 10.9896 19.9496C11.1146 19.9375 11.2352 19.9132 11.3587 19.896C11.5587 19.8689 11.7586 19.8439 11.9557 19.8046C12.0985 19.776 12.2413 19.7332 12.3841 19.7011C12.5555 19.6589 12.7283 19.6196 12.8968 19.569C13.046 19.5233 13.1903 19.4676 13.3359 19.4162C13.4816 19.3648 13.6473 19.3091 13.7994 19.2462C13.9514 19.1834 14.1007 19.1098 14.2506 19.0392C14.3877 18.9742 14.5256 18.9128 14.6605 18.8414C14.8197 18.7564 14.9732 18.6629 15.1275 18.5701C15.2439 18.4987 15.361 18.4337 15.4745 18.3559C15.6416 18.2459 15.8016 18.1267 15.9615 18.0074C16.0543 17.936 16.1485 17.8717 16.2392 17.7989C16.4085 17.6632 16.5691 17.519 16.7298 17.3705C16.7883 17.3169 16.8512 17.2698 16.909 17.2141C16.9147 17.2091 16.9169 17.2005 16.9226 17.1948C20.9046 13.38 21.04 7.05956 17.2252 3.07771ZM15.6203 16.4472C15.4904 16.5614 15.3561 16.67 15.2205 16.7749C15.1405 16.8364 15.0605 16.897 14.9784 16.9556C14.8491 17.0491 14.7178 17.1377 14.5842 17.2227C14.4871 17.2848 14.3879 17.3447 14.2879 17.4033C14.1622 17.4747 14.0344 17.5461 13.9051 17.6175C13.7909 17.6761 13.6745 17.7311 13.5574 17.7853C13.4403 17.8396 13.3111 17.8974 13.1847 17.9481C13.0583 17.9988 12.924 18.0467 12.7919 18.0909C12.6713 18.1324 12.5506 18.1752 12.4285 18.2116C12.2857 18.2544 12.1364 18.2894 11.9886 18.3252C11.8729 18.3523 11.7587 18.383 11.6416 18.4059C11.4724 18.4387 11.2996 18.4615 11.1261 18.4851C11.0275 18.4979 10.9297 18.5158 10.8304 18.5258C10.5562 18.5522 10.2784 18.5679 9.99783 18.5679C9.71722 18.5679 9.43945 18.5523 9.16524 18.5258C9.066 18.5158 8.96818 18.4979 8.8696 18.4851C8.6961 18.4615 8.5233 18.4387 8.35406 18.4059C8.23696 18.383 8.1227 18.3523 8.00705 18.3252C7.85924 18.2895 7.71213 18.2537 7.5672 18.2116C7.44512 18.1752 7.32441 18.1324 7.20375 18.0909C7.07166 18.0452 6.93953 17.9988 6.811 17.9481C6.68248 17.8974 6.5611 17.8417 6.43826 17.7853C6.31542 17.7289 6.20476 17.6761 6.09054 17.6175C5.9613 17.5504 5.83348 17.4797 5.7078 17.4033C5.60784 17.3448 5.50856 17.2848 5.41145 17.2227C5.27794 17.1377 5.14653 17.0491 5.01729 16.9556C4.93516 16.8971 4.8552 16.8364 4.77521 16.7749C4.63952 16.67 4.5053 16.5607 4.37535 16.4472C4.34393 16.4236 4.31536 16.3936 4.28469 16.3665C4.31661 13.9374 5.87708 11.7926 8.17843 11.0146C9.32912 11.562 10.6651 11.562 11.8158 11.0146C14.1171 11.7926 15.6776 13.9374 15.7096 16.3665C15.6796 16.3936 15.651 16.4208 15.6203 16.4472ZM7.50716 5.72561C8.2803 4.35062 10.0217 3.86274 11.3967 4.63588C12.7717 5.40902 13.2596 7.1504 12.4864 8.52539C12.2299 8.9816 11.8529 9.35857 11.3967 9.61513C11.3931 9.61513 11.3888 9.61513 11.3845 9.61939C11.1952 9.72479 10.9951 9.80955 10.7876 9.87218C10.7505 9.8829 10.7162 9.89716 10.6769 9.90645C10.6055 9.92503 10.5305 9.93787 10.457 9.95072C10.3185 9.97494 10.1784 9.989 10.0378 9.99285H9.95641C9.81588 9.989 9.67576 9.97494 9.53727 9.95072C9.46585 9.93787 9.39016 9.92503 9.31736 9.90645C9.2795 9.89716 9.24594 9.8829 9.2067 9.87218C8.99922 9.80955 8.79911 9.72483 8.60974 9.61939L8.5969 9.61513C7.2219 8.84199 6.73402 7.10061 7.50716 5.72561ZM16.9763 14.9506C16.518 12.8133 15.1107 11.0014 13.1532 10.0286C14.7534 8.28557 14.6375 5.57537 12.8944 3.97524C11.1514 2.37511 8.44117 2.491 6.84104 4.23406C5.33677 5.87272 5.33677 8.39 6.84104 10.0286C4.88361 11.0014 3.47624 12.8133 3.01802 14.9506C0.27991 11.0937 1.18681 5.74745 5.04365 3.00935C8.90048 0.271241 14.2467 1.17814 16.9848 5.03498C18.0141 6.48482 18.5666 8.21909 18.5658 9.99716C18.5658 11.7737 18.01 13.5057 16.9763 14.9506Z"/>
    </g>
  </symbol>

  <symbol id="shop" viewBox="0 0 20 20">
    <path d="M17.6562 4.6875H15.2755C14.9652 2.05164 12.7179 0 10 0C7.28215 0 5.0348 2.05164 4.72445 4.6875H2.34375C1.91227 4.6875 1.5625 5.03727 1.5625 5.46875V19.2188C1.5625 19.6502 1.91227 20 2.34375 20H17.6562C18.0877 20 18.4375 19.6502 18.4375 19.2188V5.46875C18.4375 5.03727 18.0877 4.6875 17.6562 4.6875ZM10 1.5625C11.8548 1.5625 13.3992 2.91621 13.6976 4.6875H6.30238C6.60082 2.91621 8.14516 1.5625 10 1.5625ZM16.875 18.4375H3.125V6.25H4.6875V8.59375C4.6875 9.02523 5.03727 9.375 5.46875 9.375C5.90023 9.375 6.25 9.02523 6.25 8.59375V6.25H13.75V8.59375C13.75 9.02523 14.0998 9.375 14.5312 9.375C14.9627 9.375 15.3125 9.02523 15.3125 8.59375V6.25H16.875V18.4375Z"/>
  </symbol>
</svg>
